<!-- <svg width="60" height="60" viewBox="0 0 60 60" fill="none" xmlns="http://www.w3.org/2000/svg">
<path d="M29.5198 9.1202C31.4988 11.0992 34.4968 11.6449 37.0463 10.4907C39.6653 9.50445 41.3996 6.9987 41.3998 4.2002C41.3996 6.99895 43.1338 9.50495 45.7533 10.4907C48.3023 11.6457 51.3003 11.1007 53.2798 9.1227C51.3013 11.1007 50.7553 14.0979 51.9093 16.6467C52.8956 19.2657 55.4013 20.9999 58.1998 21.0002M7.7998 31.8002H12.5998M52.1998 24.6002H44.9998C41.0233 24.6002 37.7998 21.3767 37.7998 17.4002H23.3998C23.3998 21.3767 20.1763 24.6004 16.1998 24.6002H1.7998V55.8002H44.9998C48.9761 55.7999 52.1998 52.5764 52.1998 48.6002V24.6002ZM40.1998 39.0002C40.1998 31.6102 32.1998 26.9912 25.7998 30.6864C22.8296 32.4012 20.9998 35.5704 20.9998 39.0002C20.9998 46.3902 28.9998 51.0092 35.3998 47.3139C38.3701 45.5992 40.1998 42.4299 40.1998 39.0002Z" stroke="#4786E6" stroke-width="2"/>
<defs>
<linearGradient id="paint0_linear_393_358" x1="29.9998" y1="4.2002" x2="29.9998" y2="55.8002" gradientUnits="userSpaceOnUse">
<stop stop-color="#4786E6"/>
<stop offset="1" stop-color="#4786E6"/>
</linearGradient>
</defs>
</svg> -->
<!-- 
<svg width="60" height="60" viewBox="0 0 60 60" fill="none" xmlns="http://www.w3.org/2000/svg">
  <path d="M12 30H48C50.2091 30 52 31.7909 52 34V46C52 48.2091 50.2091 50 48 50H12C9.79086 50 8 48.2091 8 46V34C8 31.7909 9.79086 30 12 30Z" fill="url(#paint0_linear_393_358)" stroke="#4786E6" stroke-width="2"/>
  <path d="M24 46C24 47.1046 23.1046 48 22 48C20.8954 48 20 47.1046 20 46C20 44.8954 20.8954 44 22 44C23.1046 44 24 44.8954 24 46Z" fill="#4786E6"/>
  <path d="M40 46C40 47.1046 39.1046 48 38 48C36.8954 48 36 47.1046 36 46C36 44.8954 36.8954 44 38 44C39.1046 44 40 44.8954 40 46Z" fill="#4786E6"/>
  <path d="M24 18H36C37.1046 18 38 18.8954 38 20C38 21.1046 37.1046 22 36 22H24C22.8954 22 22 21.1046 22 20C22 18.8954 22.8954 18 24 18Z" fill="#4786E6"/>
  <defs>
    <linearGradient id="paint0_linear_393_358" x1="29.9998" y1="4.2002" x2="29.9998" y2="55.8002" gradientUnits="userSpaceOnUse">
      <stop stop-color="#4786E6"/>
      <stop offset="1" stop-color="#4786E6"/>
    </linearGradient>
  </defs>
</svg> -->

<svg width="60" height="60" viewBox="0 0 60 60" fill="none" xmlns="http://www.w3.org/2000/svg">
  <rect x="15" y="5" width="30" height="50" rx="5" ry="5" stroke="#0000" strokeWidth="2" fill="#4786E6"/>
  <circle cx="30" cy="50" r="3" fill="#fff"/>
</svg>
